<?xml version="1.0" encoding="UTF-8"?>
<svg xmlns="http://www.w3.org/2000/svg" viewBox="0 0 1600 1000" width="1600" height="1000" preserveAspectRatio="xMidYMid slice">
<defs>
<filter id="soft" x="-25%" y="-25%" width="150%" height="150%"><feGaussianBlur stdDeviation="30"/></filter>
<filter id="softShadow" x="-25%" y="-25%" width="150%" height="150%"><feGaussianBlur stdDeviation="12"/></filter>
<filter id="grain" x="0" y="0" width="100%" height="100%"><feTurbulence type="fractalNoise" baseFrequency="0.9" numOctaves="4" stitchTiles="stitch"/><feColorMatrix type="saturate" values="0"/></filter>
<radialGradient id="vig" cx="0.5" cy="0.5" r="0.75"><stop offset="0" stop-color="#000000" stop-opacity="0"/><stop offset="0.55" stop-color="#000000" stop-opacity="0"/><stop offset="1" stop-color="#000000" stop-opacity="0.45"/></radialGradient>
<linearGradient id="light" x1="0" y1="0" x2="0" y2="1"><stop offset="0" stop-color="#ffe9c2" stop-opacity="0.95"/><stop offset="1" stop-color="#e6b072" stop-opacity="0.55"/></linearGradient>
<linearGradient id="night" x1="0" y1="0" x2="0" y2="1"><stop offset="0" stop-color="#241a12"/><stop offset="0.55" stop-color="#191110"/><stop offset="1" stop-color="#0f0a08"/></linearGradient><radialGradient id="lamp" cx="0.5" cy="0.5" r="0.75"><stop offset="0" stop-color="#ffdca8" stop-opacity="0.5"/><stop offset="0.5" stop-color="#c2833a" stop-opacity="0.16"/><stop offset="1" stop-color="#c2833a" stop-opacity="0"/></radialGradient>
</defs>
<rect width="1600" height="1000" fill="url(#night)"/>
<circle cx="1180" cy="230" r="620" fill="url(#lamp)"/><g><circle cx="1180" cy="250" r="288" fill="#ffd7a0" opacity="0.16" filter="url(#soft)"/><circle cx="1180" cy="250" r="135" fill="#ffd7a0" opacity="0.22" filter="url(#soft)"/></g><ellipse cx="800" cy="880" rx="720" ry="70" fill="#000000" opacity="0.35" filter="url(#soft)"/><g opacity="0.95"><rect x="150" y="742" width="290" height="34" rx="8" fill="#7c3a22"/><rect x="166" y="712" width="266" height="32" rx="8" fill="#556141"/><rect x="150" y="684" width="300" height="30" rx="8" fill="#3a2531"/><rect x="178" y="656" width="240" height="30" rx="8" fill="#96601f"/></g><g><path d="M800 640 C 660.27 607.6 489.5 575.2 489.5 615.7 L489.5 741.25 C 489.5 769.6 644.75 761.5 800 789.85 Z" fill="#f6ecdc"/><path d="M800 640 C 939.73 607.6 1110.5 575.2 1110.5 615.7 L1110.5 741.25 C 1110.5 769.6 955.25 761.5 800 789.85 Z" fill="#f6ecdc" opacity="0.93"/><path d="M800 640 L800 789.85" stroke="#3a2c20" stroke-opacity="0.45" stroke-width="8.1"/><line x1="541.61" y1="650.13" x2="767.6" y2="640" stroke="#3a2c20" stroke-opacity="0.32" stroke-width="6.75" stroke-linecap="round"/><line x1="832.4" y1="640" x2="1058.39" y2="650.13" stroke="#3a2c20" stroke-opacity="0.32" stroke-width="6.75" stroke-linecap="round"/><line x1="541.61" y1="670.38" x2="767.6" y2="660.25" stroke="#3a2c20" stroke-opacity="0.32" stroke-width="6.75" stroke-linecap="round"/><line x1="832.4" y1="660.25" x2="1058.39" y2="670.38" stroke="#3a2c20" stroke-opacity="0.32" stroke-width="6.75" stroke-linecap="round"/><line x1="541.61" y1="690.63" x2="767.6" y2="680.5" stroke="#3a2c20" stroke-opacity="0.32" stroke-width="6.75" stroke-linecap="round"/><line x1="832.4" y1="680.5" x2="1058.39" y2="690.63" stroke="#3a2c20" stroke-opacity="0.32" stroke-width="6.75" stroke-linecap="round"/><line x1="541.61" y1="710.88" x2="767.6" y2="700.75" stroke="#3a2c20" stroke-opacity="0.32" stroke-width="6.75" stroke-linecap="round"/><line x1="832.4" y1="700.75" x2="1058.39" y2="710.88" stroke="#3a2c20" stroke-opacity="0.32" stroke-width="6.75" stroke-linecap="round"/><line x1="541.61" y1="731.13" x2="767.6" y2="721" stroke="#3a2c20" stroke-opacity="0.32" stroke-width="6.75" stroke-linecap="round"/><line x1="832.4" y1="721" x2="1058.39" y2="731.13" stroke="#3a2c20" stroke-opacity="0.32" stroke-width="6.75" stroke-linecap="round"/><line x1="541.61" y1="751.38" x2="767.6" y2="741.25" stroke="#3a2c20" stroke-opacity="0.32" stroke-width="6.75" stroke-linecap="round"/><line x1="832.4" y1="741.25" x2="1058.39" y2="751.38" stroke="#3a2c20" stroke-opacity="0.32" stroke-width="6.75" stroke-linecap="round"/><line x1="628.55" y1="771.63" x2="767.6" y2="761.5" stroke="#3a2c20" stroke-opacity="0.32" stroke-width="6.75" stroke-linecap="round"/><line x1="832.4" y1="761.5" x2="971.45" y2="771.63" stroke="#3a2c20" stroke-opacity="0.32" stroke-width="6.75" stroke-linecap="round"/></g><g stroke="#c9a25a" stroke-width="7" fill="none" opacity="0.9" transform="translate(1180 730)"><circle cx="0" cy="0" r="42"/><circle cx="112" cy="0" r="42"/><path d="M42 0 L70 0"/><path d="M-42 -6 L-110 -34"/></g><g opacity="0.95"><rect x="1320" y="654" width="118" height="96" rx="16" fill="#e9dfcd"/><rect x="1332" y="666" width="94" height="20" rx="10" fill="#6b4a34"/><path d="M1438 682 C 1490 686 1490 742 1436 744" fill="none" stroke="#e9dfcd" stroke-width="16"/><ellipse cx="1379" cy="652" rx="52" ry="12" fill="#4a3527"/></g><g transform="rotate(-26 1330 840)"><rect x="1100" y="834" width="230" height="9" rx="4" fill="#e9dfcd" opacity="0.85"/><path d="M1330 839 L1392 806 L1398 844 Z" fill="#c9a25a" opacity="0.85"/></g><g transform="translate(474.12 186.98) rotate(226.7043447587639)"><path d="M0 0 C 8.66 -7.87 15.75 -2.36 15.75 0 C 15.75 2.36 8.66 7.87 0 0 Z" fill="#96601f" opacity="0.29"/><path d="M0 0 L15.75 0" stroke="#1e1712" stroke-opacity="0.28" stroke-width="0.79"/></g><g transform="translate(380.39 272.99) rotate(225.56437357328832)"><path d="M0 0 C 11.83 -10.76 21.51 -3.23 21.51 0 C 21.51 3.23 11.83 10.76 0 0 Z" fill="#5a3a48" opacity="0.21"/><path d="M0 0 L21.51 0" stroke="#1e1712" stroke-opacity="0.28" stroke-width="1.08"/></g><g transform="translate(654.71 378.53) rotate(78.4071443695575)"><path d="M0 0 C 8.65 -7.86 15.73 -2.36 15.73 0 C 15.73 2.36 8.65 7.86 0 0 Z" fill="#5a3a48" opacity="0.24"/><path d="M0 0 L15.73 0" stroke="#1e1712" stroke-opacity="0.28" stroke-width="0.79"/></g><g transform="translate(408.39 622.36) rotate(133.7881540786475)"><path d="M0 0 C 9.04 -8.22 16.44 -2.47 16.44 0 C 16.44 2.47 9.04 8.22 0 0 Z" fill="#5a3a48" opacity="0.22"/><path d="M0 0 L16.44 0" stroke="#1e1712" stroke-opacity="0.28" stroke-width="0.82"/></g><g transform="translate(443.61 651.51) rotate(96.19979881681502)"><path d="M0 0 C 14.28 -12.98 25.97 -3.89 25.97 0 C 25.97 3.89 14.28 12.98 0 0 Z" fill="#a1502c" opacity="0.5"/><path d="M0 0 L25.97 0" stroke="#1e1712" stroke-opacity="0.28" stroke-width="1.3"/></g><g transform="translate(790.81 310.03) rotate(185.63367552123964)"><path d="M0 0 C 11.45 -10.41 20.82 -3.12 20.82 0 C 20.82 3.12 11.45 10.41 0 0 Z" fill="#c2833a" opacity="0.39"/><path d="M0 0 L20.82 0" stroke="#1e1712" stroke-opacity="0.28" stroke-width="1.04"/></g><g transform="translate(131 695.96) rotate(118.91107206232846)"><path d="M0 0 C 12.93 -11.75 23.51 -3.53 23.51 0 C 23.51 3.53 12.93 11.75 0 0 Z" fill="#c2833a" opacity="0.28"/><path d="M0 0 L23.51 0" stroke="#1e1712" stroke-opacity="0.28" stroke-width="1.18"/></g><g transform="translate(469.63 364.8) rotate(42.19082552008331)"><path d="M0 0 C 8.5 -7.73 15.45 -2.32 15.45 0 C 15.45 2.32 8.5 7.73 0 0 Z" fill="#c2833a" opacity="0.46"/><path d="M0 0 L15.45 0" stroke="#1e1712" stroke-opacity="0.28" stroke-width="0.77"/></g><g transform="translate(232.02 341.81) rotate(262.85279081203043)"><path d="M0 0 C 10.62 -9.65 19.3 -2.9 19.3 0 C 19.3 2.9 10.62 9.65 0 0 Z" fill="#96601f" opacity="0.51"/><path d="M0 0 L19.3 0" stroke="#1e1712" stroke-opacity="0.28" stroke-width="0.97"/></g><g transform="translate(194.7 436.26) rotate(144.93172436021268)"><path d="M0 0 C 12.74 -11.58 23.16 -3.47 23.16 0 C 23.16 3.47 12.74 11.58 0 0 Z" fill="#c2833a" opacity="0.44"/><path d="M0 0 L23.16 0" stroke="#1e1712" stroke-opacity="0.28" stroke-width="1.16"/></g>
<rect width="1600" height="1000" filter="url(#grain)" opacity="0.09" style="mix-blend-mode:overlay"/>
<rect width="1600" height="1000" fill="url(#vig)"/>
</svg>
