<?xml version="1.0" encoding="UTF-8"?>
<svg xmlns="http://www.w3.org/2000/svg" viewBox="0 0 880 1200" width="880" height="1200" preserveAspectRatio="xMidYMid slice" role="img" aria-label="Naslovnica knjige Prosanjane jeseni, autor Zija Dizdarević">
<defs>
<clipPath id="kz-okno"><rect x="150" y="360" width="520" height="626"/></clipPath>
<linearGradient id="kz-nebo" x1="0" y1="0" x2="0" y2="1"><stop offset="0" stop-color="#efe9dd"/><stop offset="0.55" stop-color="#ddd5c6"/><stop offset="1" stop-color="#cbc0ab"/></linearGradient>
<linearGradient id="kz-zavjesa" x1="0" y1="0" x2="1" y2="1"><stop offset="0" stop-color="#ffffff"/><stop offset="0.65" stop-color="#f6f4ee"/><stop offset="1" stop-color="#ded9cf"/></linearGradient>
<linearGradient id="kz-cilim" x1="0" y1="0" x2="1" y2="1"><stop offset="0" stop-color="#d4522c"/><stop offset="1" stop-color="#9d2318"/></linearGradient>
<linearGradient id="kz-drvo" x1="0" y1="0" x2="1" y2="0"><stop offset="0" stop-color="#b07c40"/><stop offset="0.5" stop-color="#c08e4c"/><stop offset="1" stop-color="#9a6a33"/></linearGradient>
<filter id="kz-mekano" x="-20%" y="-20%" width="140%" height="140%"><feGaussianBlur stdDeviation="10"/></filter>
<filter id="kz-sjena" x="-30%" y="-30%" width="160%" height="160%"><feGaussianBlur stdDeviation="16"/></filter>
</defs>
<rect width="880" height="1200" fill="#fcfbf7"/>
<rect x="16" y="16" width="848" height="1168" fill="none" stroke="#e7e2d7" stroke-width="2"/>
<text x="196" y="118" transform="rotate(-4 196 118)" font-family="Georgia, 'Times New Roman', serif" font-size="46" font-style="italic" fill="#b03a2a">Zija Dizdarević</text>
<text x="64" y="272" transform="rotate(-3.4 440 248)" font-family="Georgia, 'Times New Roman', serif" font-size="94" font-style="italic" letter-spacing="-1" fill="#3f8f2f">prosanjane jeseni</text>
<g clip-path="url(#kz-okno)">
<rect x="150" y="360" width="520" height="626" fill="url(#kz-nebo)"/>
<g opacity="0.75">
<path d="M588 700 L646 656 L706 700 Z" fill="#7f5a33"/>
<rect x="600" y="696" width="96" height="150" fill="#c9a86f"/>
<rect x="620" y="726" width="24" height="30" fill="#8d6a3c"/>
<rect x="656" y="726" width="24" height="30" fill="#8d6a3c"/>
<rect x="620" y="780" width="24" height="30" fill="#8d6a3c"/>
<rect x="656" y="780" width="24" height="30" fill="#8d6a3c"/>
</g>
<path d="M150 806 C 236 754 306 796 386 762 C 476 724 566 766 670 738 L670 986 L150 986 Z" fill="#808f5c" opacity="0.5"/>
<path d="M232 806 C 264 770 306 776 330 806 C 302 818 258 818 232 806 Z" fill="#6f7f4d" opacity="0.7"/>
<g>
<path d="M300 690 L364 636 L430 690 Z" fill="#8a5a34"/>
<path d="M310 690 L364 645 L420 690 Z" fill="#a06c3d"/>
<rect x="312" y="690" width="106" height="164" fill="#dcb87c"/>
<rect x="332" y="726" width="28" height="34" fill="#6f4a26"/>
<rect x="374" y="726" width="28" height="34" fill="#6f4a26"/>
<rect x="350" y="792" width="34" height="62" fill="#6f4a26"/>
<rect x="318" y="722" width="118" height="8" fill="#c39a62" opacity="0.6"/>
</g>
<g>
<rect x="552" y="612" width="28" height="288" fill="#efe3c8"/>
<rect x="546" y="664" width="40" height="13" fill="#a9743a"/>
<rect x="552" y="612" width="9" height="288" fill="#ffffff" opacity="0.45"/>
<path d="M552 612 Q566 566 580 612 Z" fill="#7e8c5e"/>
<path d="M566 566 L566 546" stroke="#8a6c33" stroke-width="4"/>
<circle cx="566" cy="542" r="6" fill="#c39a62"/>
</g>
<g opacity="0.85">
<path d="M446 754 L492 716 L540 754 Z" fill="#8a5a34"/>
<rect x="456" y="754" width="74" height="112" fill="#d3ad72"/>
<rect x="472" y="784" width="20" height="26" fill="#7b5330"/>
<rect x="502" y="784" width="20" height="26" fill="#7b5330"/>
</g>
<circle cx="252" cy="742" r="34" fill="#6d7f4a" opacity="0.6"/>
<circle cx="286" cy="762" r="26" fill="#7c8d58" opacity="0.55"/>
<path d="M150 884 C 246 852 300 900 366 872 C 430 846 520 890 600 862 L670 880 L670 986 L150 986 Z" fill="#4f5a3a" opacity="0.25"/>
</g>
<path d="M150 360 C 236 396 206 470 250 522 C 296 578 232 646 268 704 C 306 764 236 830 266 900 C 296 966 224 972 232 986 L150 986 Z" fill="url(#kz-zavjesa)"/>
<path d="M150 360 C 236 396 206 470 250 522 C 296 578 232 646 268 704 C 306 764 236 830 266 900 C 296 966 224 972 232 986 L150 986 Z" fill="#b9b4a8" opacity="0.35" filter="url(#kz-sjena)"/>
<path d="M196 380 C 250 470 208 560 246 660 C 284 760 226 850 256 960" fill="none" stroke="#c9c4b8" stroke-width="3" opacity="0.55"/>
<g fill="none" stroke="url(#kz-drvo)">
<rect x="150" y="360" width="520" height="626" stroke-width="34"/>
<path d="M410 360 L410 986" stroke-width="30"/>
<path d="M150 673 L670 673" stroke-width="26"/>
</g>
<g fill="none" stroke="#7d5426" stroke-opacity="0.45">
<rect x="150" y="360" width="520" height="626" stroke-width="2"/>
<path d="M410 360 L410 986" stroke-width="2"/>
<path d="M150 673 L670 673" stroke-width="2"/>
</g>
<g fill="none" stroke="#e6c793" stroke-opacity="0.5">
<path d="M156 366 L664 366"/>
<path d="M156 640 L664 640"/>
<path d="M404 366 L404 640"/>
</g>
<path d="M150 986 C 300 942 560 938 700 990 L700 1104 C 560 1052 300 1056 150 1100 Z" fill="url(#kz-cilim)"/>
<g fill="none" stroke="#f0c15c" stroke-width="3" opacity="0.85">
<path d="M226 968 L286 1102 M344 962 L402 1092 M596 962 L648 1082"/>
</g>
<path d="M480 962 L520 976 L512 1016 L472 1000 Z" fill="#f0c15c" opacity="0.75"/>
<g fill="#f0c15c" opacity="0.7">
<circle cx="270" cy="1000" r="5"/><circle cx="330" cy="992" r="5"/><circle cx="392" cy="988" r="5"/><circle cx="620" cy="986" r="5"/><circle cx="662" cy="998" r="5"/>
</g>
<path d="M150 1100 C 300 1056 560 1052 700 1104 L700 1124 C 560 1070 300 1074 150 1120 Z" fill="#7c1f14" opacity="0.7"/>
<rect x="698" y="1052" width="134" height="86" fill="#15130f"/>
<text x="765" y="1088" text-anchor="middle" font-family="Georgia, 'Times New Roman', serif" font-size="22" fill="#ffffff" letter-spacing="2">MLADOST</text>
<text x="765" y="1120" text-anchor="middle" font-family="Georgia, 'Times New Roman', serif" font-size="27" font-weight="bold" fill="#ffffff" letter-spacing="4">DANI</text>
<rect x="0" y="1150" width="880" height="50" fill="#f1eee7"/>
<rect x="0" y="1150" width="880" height="2" fill="#ddd8cc"/>
</svg>
