<?xml version="1.0" encoding="UTF-8"?>
<svg xmlns="http://www.w3.org/2000/svg" viewBox="0 0 1100 1500" width="1100" height="1500" preserveAspectRatio="xMidYMid slice">
<defs>
<filter id="soft" x="-25%" y="-25%" width="150%" height="150%"><feGaussianBlur stdDeviation="30"/></filter>
<filter id="softShadow" x="-25%" y="-25%" width="150%" height="150%"><feGaussianBlur stdDeviation="12"/></filter>
<filter id="grain" x="0" y="0" width="100%" height="100%"><feTurbulence type="fractalNoise" baseFrequency="0.9" numOctaves="4" stitchTiles="stitch"/><feColorMatrix type="saturate" values="0"/></filter>
<radialGradient id="vig" cx="0.5" cy="0.5" r="0.75"><stop offset="0" stop-color="#000000" stop-opacity="0"/><stop offset="0.55" stop-color="#000000" stop-opacity="0"/><stop offset="1" stop-color="#000000" stop-opacity="0.45"/></radialGradient>
<linearGradient id="light" x1="0" y1="0" x2="0" y2="1"><stop offset="0" stop-color="#ffe9c2" stop-opacity="0.95"/><stop offset="1" stop-color="#e6b072" stop-opacity="0.55"/></linearGradient>
<linearGradient id="cover" x1="0" y1="0" x2="0" y2="1"><stop offset="0" stop-color="#2f2318"/><stop offset="0.5" stop-color="#1c1410"/><stop offset="1" stop-color="#120c0a"/></linearGradient><radialGradient id="coverGlow" cx="0.5" cy="0.5" r="0.75"><stop offset="0" stop-color="#d9a25a" stop-opacity="0.32"/><stop offset="1" stop-color="#d9a25a" stop-opacity="0"/></radialGradient>
</defs>
<rect width="1100" height="1500" fill="url(#cover)"/>
<circle cx="780" cy="300" r="600" fill="url(#coverGlow)"/><rect x="60" y="60" width="980" height="1380" rx="14" fill="none" stroke="#c9a25a" stroke-opacity="0.5" stroke-width="6"/><g stroke="#c9a25a" stroke-opacity="0.7" stroke-width="4"><path d="M170 250 L930 250"/><path d="M170 264 L930 264"/></g><text x="550" y="200" text-anchor="middle" font-family="Georgia, 'Times New Roman', serif" font-size="34" letter-spacing="14" fill="#d9a25a" opacity="0.85">LEKTIRA</text><text x="550" y="480" text-anchor="middle" font-family="Georgia, 'Times New Roman', serif" font-size="112" fill="#f6ecdc">Prosanjane</text><text x="550" y="612" text-anchor="middle" font-family="Georgia, 'Times New Roman', serif" font-size="112" font-style="italic" fill="#d9a25a">jeseni</text><g stroke="#c9a25a" stroke-opacity="0.7" stroke-width="4"><path d="M170 700 L930 700"/><path d="M170 714 L930 714"/></g><text x="550" y="800" text-anchor="middle" font-family="Georgia, 'Times New Roman', serif" font-size="52" fill="#e9dfcd">Zija Dizdarević</text><text x="550" y="1300" text-anchor="middle" font-family="Georgia, 'Times New Roman', serif" font-size="40" fill="#c2833a" opacity="0.9">Rad 3. grupe</text><g transform="translate(426.67 1055.48) rotate(64.78441047482193)"><path d="M0 0 C 29.16 -26.51 53.02 -7.95 53.02 0 C 53.02 7.95 29.16 26.51 0 0 Z" fill="#96601f" opacity="0.31"/><path d="M0 0 L53.02 0" stroke="#1e1712" stroke-opacity="0.28" stroke-width="2.65"/></g><g transform="translate(460.77 1082.9) rotate(161.38045446015894)"><path d="M0 0 C 28.21 -25.65 51.29 -7.69 51.29 0 C 51.29 7.69 28.21 25.65 0 0 Z" fill="#c9a25a" opacity="0.5"/><path d="M0 0 L51.29 0" stroke="#1e1712" stroke-opacity="0.28" stroke-width="2.56"/></g><g transform="translate(479.2 1204.14) rotate(169.33157323859632)"><path d="M0 0 C 13.54 -12.31 24.62 -3.69 24.62 0 C 24.62 3.69 13.54 12.31 0 0 Z" fill="#a1502c" opacity="0.26"/><path d="M0 0 L24.62 0" stroke="#1e1712" stroke-opacity="0.28" stroke-width="1.23"/></g><g transform="translate(329.59 1036.05) rotate(209.3305527884513)"><path d="M0 0 C 22.67 -20.61 41.21 -6.18 41.21 0 C 41.21 6.18 22.67 20.61 0 0 Z" fill="#c9a25a" opacity="0.44"/><path d="M0 0 L41.21 0" stroke="#1e1712" stroke-opacity="0.28" stroke-width="2.06"/></g><g transform="translate(569.87 1120.73) rotate(62.14228640310466)"><path d="M0 0 C 21.02 -19.11 38.22 -5.73 38.22 0 C 38.22 5.73 21.02 19.11 0 0 Z" fill="#a1502c" opacity="0.29"/><path d="M0 0 L38.22 0" stroke="#1e1712" stroke-opacity="0.28" stroke-width="1.91"/></g><g transform="translate(195.57 975.47) rotate(347.36468472518027)"><path d="M0 0 C 33.28 -30.26 60.52 -9.08 60.52 0 C 60.52 9.08 33.28 30.26 0 0 Z" fill="#96601f" opacity="0.46"/><path d="M0 0 L60.52 0" stroke="#1e1712" stroke-opacity="0.28" stroke-width="3.03"/></g><g transform="translate(123.49 1173.32) rotate(47.43921956978738)"><path d="M0 0 C 21.43 -19.48 38.95 -5.84 38.95 0 C 38.95 5.84 21.43 19.48 0 0 Z" fill="#c2833a" opacity="0.52"/><path d="M0 0 L38.95 0" stroke="#1e1712" stroke-opacity="0.28" stroke-width="1.95"/></g><g transform="translate(658.52 1207.09) rotate(319.4062187243253)"><path d="M0 0 C 32.12 -29.2 58.39 -8.76 58.39 0 C 58.39 8.76 32.12 29.2 0 0 Z" fill="#96601f" opacity="0.31"/><path d="M0 0 L58.39 0" stroke="#1e1712" stroke-opacity="0.28" stroke-width="2.92"/></g><g transform="translate(920.45 1110) rotate(203.50159141235054)"><path d="M0 0 C 33.05 -30.05 60.1 -9.01 60.1 0 C 60.1 9.01 33.05 30.05 0 0 Z" fill="#96601f" opacity="0.44"/><path d="M0 0 L60.1 0" stroke="#1e1712" stroke-opacity="0.28" stroke-width="3"/></g><g transform="translate(620.22 1053.16) rotate(18.980726609006524)"><path d="M0 0 C 25.47 -23.15 46.3 -6.95 46.3 0 C 46.3 6.95 25.47 23.15 0 0 Z" fill="#c2833a" opacity="0.29"/><path d="M0 0 L46.3 0" stroke="#1e1712" stroke-opacity="0.28" stroke-width="2.32"/></g><g transform="translate(446.79 1097.08) rotate(276.0318688955158)"><path d="M0 0 C 13.44 -12.22 24.44 -3.67 24.44 0 C 24.44 3.67 13.44 12.22 0 0 Z" fill="#a1502c" opacity="0.6"/><path d="M0 0 L24.44 0" stroke="#1e1712" stroke-opacity="0.28" stroke-width="1.22"/></g><g transform="translate(367 923.5) rotate(270.8053390402347)"><path d="M0 0 C 29.4 -26.73 53.46 -8.02 53.46 0 C 53.46 8.02 29.4 26.73 0 0 Z" fill="#96601f" opacity="0.27"/><path d="M0 0 L53.46 0" stroke="#1e1712" stroke-opacity="0.28" stroke-width="2.67"/></g><g transform="translate(889.74 957.64) rotate(350.9365289937705)"><path d="M0 0 C 32.53 -29.57 59.15 -8.87 59.15 0 C 59.15 8.87 32.53 29.57 0 0 Z" fill="#96601f" opacity="0.34"/><path d="M0 0 L59.15 0" stroke="#1e1712" stroke-opacity="0.28" stroke-width="2.96"/></g><g transform="translate(430.44 1031.84) rotate(23.97966348566115)"><path d="M0 0 C 31.66 -28.78 57.56 -8.63 57.56 0 C 57.56 8.63 31.66 28.78 0 0 Z" fill="#96601f" opacity="0.26"/><path d="M0 0 L57.56 0" stroke="#1e1712" stroke-opacity="0.28" stroke-width="2.88"/></g>
<rect width="1100" height="1500" filter="url(#grain)" opacity="0.09" style="mix-blend-mode:overlay"/>
<rect width="1100" height="1500" fill="url(#vig)"/>
</svg>
